<svg xmlns="http://www.w3.org/2000/svg" width="512" height="512" viewBox="0 0 512 512" role="img" aria-labelledby="title desc">
<title id="title">Ícone Escola Bíblica 360</title><desc id="desc">Ícone com Bíblia aberta, luz e cruz discreta.</desc>
<defs><linearGradient id="goldGrad" x1="0" x2="1" y1="0" y2="1"><stop offset="0%" stop-color="#F4D86A"/><stop offset="45%" stop-color="#D9B93F"/><stop offset="100%" stop-color="#A9791E"/></linearGradient><linearGradient id="navyGrad" x1="0" x2="1" y1="0" y2="1"><stop offset="0%" stop-color="#12324A"/><stop offset="100%" stop-color="#06111B"/></linearGradient><filter id="glow" x="-40%" y="-40%" width="180%" height="180%"><feGaussianBlur stdDeviation="7" result="blur"/><feMerge><feMergeNode in="blur"/><feMergeNode in="SourceGraphic"/></feMerge></filter></defs>
<rect x="26" y="26" width="460" height="460" rx="108" fill="url(#navyGrad)"/><rect x="42" y="42" width="428" height="428" rx="96" fill="none" stroke="url(#goldGrad)" stroke-width="7" opacity="0.75"/>
<g stroke="url(#goldGrad)" stroke-width="10" stroke-linecap="round" opacity="0.62" filter="url(#glow)"><path d="M256 92 L256 48"/><path d="M184 112 L162 72"/><path d="M328 112 L350 72"/><path d="M132 178 L92 156"/><path d="M380 178 L420 156"/></g>
<g fill="none" stroke="url(#goldGrad)" stroke-width="20" stroke-linecap="round" stroke-linejoin="round"><path d="M138 196 C186 166 226 168 256 204 C286 168 326 166 374 196 V360 C328 333 286 338 256 374 C226 338 184 333 138 360 Z"/><path d="M256 204 V378"/><path d="M172 242 C202 229 226 234 246 254"/><path d="M340 242 C310 229 286 234 266 254"/><path d="M172 296 C202 283 226 288 246 308"/><path d="M340 296 C310 283 286 288 266 308"/></g>
<g stroke="#F8FAFC" stroke-width="10" stroke-linecap="round" opacity="0.95"><path d="M256 128 V166"/><path d="M238 147 H274"/></g><circle cx="394" cy="93" r="24" fill="url(#goldGrad)" filter="url(#glow)"/></svg>